Coma *1978* [DVD5][NTSC][ENG, POL] 

General information:
Country: USA
Release: 6 January 1978
Genre: Thriller, Mystery 
Director: Michael Crichton
Screenplay: Michael Crichton
Original Music: Jerry Goldsmith 
Cinematography by: Victor J. Kemper
Duration: 1h 52mn
Language: English, Polish
Subtitles: English, Polish
Rating: 7.9/10 - 1382 votes 

Cast:
Genevieve Bujold  ...  Dr. Susan Wheeler (as Genevieve Bujold)  
Michael Douglas  ...  Dr. Mark Bellows  
Elizabeth Ashley  ...  Mrs. Emerson  
Rip Torn  ...  Dr. George  
Richard Widmark  ...  Dr. Harris  
Lois Chiles  ...  Nancy Greenly  
Hari Rhodes  ...  Dr. Morelind (as Harry Rhodes)  
Gary Barton  ...  Computer Technician  
Frank Downing  ...  Kelly  
Richard Doyle  ...  Jim  
Alan Haufrect  ...  Dr. Marcus  
Lance LeGault  ...  Vince (as Lance Le Gault)  
Michael MacRae  ...  Chief Resident  
Betty McGuire  ...  Nurse  
Tom Selleck  ...  Sean Murphy  

Plot:
A young woman doctor discovers something sinister going on in her hospital. Relatively healthy patients are having 'complications' during simple operations and ending up in comas...

Specifications:
General
Format                           : MPEG-PS
Overall bit rate                 : 5 546 Kbps

Video
Format                           : MPEG Video
Format version                   : Version 2
Format profile                   : Main@Main
Format settings, BVOP            : Yes
Format settings, Matrix          : Default
Format settings, GOP             : M=3, N=12
Bit rate mode                    : Variable
Bit rate                         : 4 796 Kbps
Nominal bit rate                 : 7 500 Kbps
Width                            : 720 pixels
Height                           : 480 pixels
Display aspect ratio             : 16:9
Frame rate                       : 23.976 fps
Standard                         : NTSC

Audio 1
Format                           : AC-3
Format/Info                      : Audio Coding 3
Format profile                   : Dolby Digital
Mode extension                   : CM (complete main)
Bit rate mode                    : Constant
Bit rate                         : 192 Kbps
Channel(s)                       : 2 channels
Channel positions                : Front: L R
Sampling rate                    : 48.0 KHz
Video delay                      : -66ms
Stream size                      : 35.4 MiB (3%)

Audio 2
Format                           : AC-3
Format/Info                      : Audio Coding 3
Mode extension                   : CM (complete main)
Bit rate mode                    : Constant
Bit rate                         : 448 Kbps
Channel(s)                       : 2 channels
Channel positions                : Front: L R
Sampling rate                    : 48.0 KHz
Video delay                      : -66ms
Stream size                      : 82.7 MiB (8%)

Text 1
Format                           : EIA-608
Muxing mode                      : MPEG Video / DVD-Video
Muxing mode, more info           : Muxed in Video 1

Text 2
Format                           : RLE
Format/Info                      : Run-length encoding
